<svg xmlns="http://www.w3.org/2000/svg" viewBox="0 0 564 298"><style>.st0,.st1{opacity:.56;fill:url(#SVGID_1_);enable-background:new}.st1{fill:url(#SVGID_2_)}.st2,.st3{fill:none;stroke:#0dcece}.st3{stroke:#8f97b5;stroke-linecap:round;stroke-linejoin:round}.st4,.st5{fill:none;stroke:#92f4ef}.st5{stroke:#b9eae1}.st6{fill:#8f97b5}.st7{fill:#0dcece;stroke:#0dcece}.st8{fill:#92f4ef;stroke:#92f4ef}.st10,.st11{stroke:#bfc3d8}.st10,.st11,.st12,.st9{stroke-linecap:round;stroke-linejoin:round}.st9{fill:#f2f5ff;stroke:#bfc3d8}.st10{fill:#fbfcff}.st11{fill:#fff}.st12{fill:#fbfcff;stroke:#e4e6f3}.st13{fill:#e4e6f3}.st14{fill:#b5c9e2}.st14,.st15,.st16,.st17{stroke:#93a6ce;stroke-linecap:round;stroke-linejoin:round}.st15{fill:#c3d3ea}.st16{fill:#d3deef}.st17{fill:#e1eaf9}.st18{opacity:.76}.st19{fill:url(#SVGID_3_)}.st19,.st20,.st21{opacity:.74;enable-background:new}.st20{fill:url(#SVGID_4_)}.st21{fill:url(#SVGID_5_)}.st22{fill:url(#SVGID_6_)}.st23{fill:url(#SVGID_7_)}.st24{opacity:.08;fill:#777fa9;enable-background:new}.st25{fill:#636c93}.st26{fill:#959ec6}.st27{fill:#777fa9}.st28{fill:#f98e23;stroke:#e27d0e}.st29,.st30,.st31{fill:#f7a54b;stroke:#e27d0e}.st30,.st31{fill:#fff4eb;stroke-width:.5}.st31{fill:#f7931a}.st32{fill:#636c93;stroke:#5b6387}.st33{fill:#8097d1;stroke:#6883d8}.st34{fill:#deebf4;stroke:#8f97b5}.st35{fill:#91a5e2}.st35,.st36,.st37{stroke:#6883d8}.st36{fill:#cadaf8;stroke-linecap:round;stroke-linejoin:round}.st37{opacity:.43;stroke-width:.5;enable-background:new}.st37,.st38{fill:#cadaf8}.st39{opacity:.64;fill:#c3c9db;enable-background:new}.st40{fill:#bfc3d8}.st41{fill:#6ddfdf}.st42{fill:#b9f8f3}.st43{fill:#80eaeb}.st44{opacity:.37;fill:#5fc4c1;enable-background:new}.st45{fill:none;stroke:#bfc3d8;stroke-linecap:round;stroke-linejoin:round}.st46,.st47{fill:#fff}.st47{opacity:.42;stroke:#bfc3d8;stroke-width:.75;stroke-linecap:round;stroke-linejoin:round}.st48{fill:url(#SVGID_8_)}.st48,.st49,.st50{opacity:.56;enable-background:new}.st49{fill:url(#SVGID_9_)}.st50{fill:url(#SVGID_10_)}</style><g id="Layer_1"><title>hosting</title><linearGradient id="SVGID_1_" gradientUnits="userSpaceOnUse" x1="-134.892" y1="442.122" x2="-135.233" y2="442.461" gradientTransform="matrix(56.942 0 0 -33.047 8198.714 14796.673)"><stop offset="0" stop-color="#fff"/><stop offset="1" stop-color="#e4e6f3"/></linearGradient><path class="st0" d="M511.652 163.412l24.006 15.062-31.604 17.985-25.338-14.116 32.936-18.931z"/><linearGradient id="SVGID_2_" gradientUnits="userSpaceOnUse" x1="364.305" y1="72.616" x2="348.366" y2="100.224" gradientTransform="matrix(1 0 0 -1 0 300.56)"><stop offset="0" stop-color="#fff"/><stop offset="1" stop-color="#e4e6f3"/></linearGradient><path class="st1" d="M459.561 144.027l24.007 15.062L254.44 283.307l-25.337-14.116z"/><path class="st2" d="M375.511 196.546c13.925-8.34 32.881-18.988 40.729-23.714 9.9-5.964 13.037-5.3 21.627-1.1l34.3 17.353m-256.435 52.931c-30.64 12.994-17.628 35.027-17.628 35.027 5.149 8.537 15.075 11.225 23.84 6.473 31.22-16.926 102.117-56.756 151.474-84.924"/><path class="st3" d="M328.027 235.356c5.216-3.056 10.394-6.1 15.485-9.091 4.12-2.423 8.175-4.811 12.166-7.164 24.242-14.287 50.7-29.806 63.267-36.987 6.607-3.776 12.448.475 19.384 3.983l32.133 16.256M206.611 237.7l-13.267 9.774c-13.417 10.3-10.13 25.018-4.637 33.853 5.33 8.573 20.1 19.7 38.258 10.937 18.214-8.79 44.853-24.267 72.984-40.549 3.889-2.252 7.775-4.508 11.659-6.769"/><path class="st4" d="M268.2 264.52l154.077-89.8c3.893-2.141 6.839-.023 10.8 1.982l41.412 20.95"/><path class="st5" d="M213.467 239.654s-33.5 13.106-22.563 35.123c9.751 17.92 25.253 20.57 43.369 8.9l30.961-17.746"/><path class="st3" d="M447.969 198.443l15.8 7.992a5.17 5.17 0 0 0 2.907.637l9.349-1.478a5.17 5.17 0 0 1 2.907.637l34.147 17.275"/><path class="st6" d="M445.876 195.814l4.905 2.481a1.184 1.184 0 0 1-1.068 2.112l-4.905-2.481a1.184 1.184 0 0 1 1.068-2.112z"/><path class="st2" d="M480.821 192.717l15.564 7.874a5.041 5.041 0 0 0 2.869.618l9.247-1.53a5.043 5.043 0 0 1 2.869.618l33.641 17.019"/><path class="st7" d="M478.784 190.116l4.802 2.429a1.184 1.184 0 0 1-1.068 2.112l-4.802-2.429a1.184 1.184 0 0 1 1.068-2.112z"/><path class="st4" d="M480.523 200.207l42.234 21.366m6.889 3.485l33.561 16.978"/><path class="st8" d="M528.599 223.2l4.802 2.429a1.184 1.184 0 0 1-1.068 2.112l-4.802-2.429a1.183 1.183 0 1 1 1.068-2.112z"/><path class="st9" d="M305.128 17.024l-.941-.381a4.428 4.428 0 0 0-.759-.212L302.1 18c-6.192 5.931-5.971 13.682.492 17.226l90.09 49.39c6.463 3.543 16.817 1.59 23.009-4.34l2.059-1.622-10.919-5.986c-1.9-1.044-1.964-3.311-.133-5.064l2.712-2.6c1.83-1.754 1.771-4.021-.133-5.064l-50.76-27.825c-1.9-1.043-4.931-.468-6.762 1.285l-2.711 2.6c-1.831 1.753-4.858 2.328-6.762 1.285l-3.65-2c-1.9-1.044-1.963-3.311-.133-5.064l2.712-2.6c1.83-1.753 1.771-4.02-.133-5.064l-12.222-6.7c-1.9-1.044-4.931-.469-6.762 1.284l-2.712 2.6c-1.83 1.753-4.858 2.328-6.762 1.284l-6-3.289a14.157 14.157 0 0 0-1.492-.712z"/><path class="st10" d="M41.424 152.556V120.86l229.195-78.548 186.554 56.869v44.771L228.74 268.994 41.424 165.631v-5.242"/><path class="st9" d="M301.648 184.313l-72.908 39.91v44.771l228.433-125.042V99.181l-137.808 75.435"/><path class="st11" d="M454.838 104.8a4.42 4.42 0 0 0-.008-7.8L277.27 2.407a12.682 12.682 0 0 0-11.866-.031L36.942 122.569l187.27 101.042a9.101 9.101 0 0 0 8.613.014L454.838 104.8z"/><path class="st12" d="M72.781 124.256c-4 2.628-10.134 3.183-13.7 1.24-3.566-1.943-3.219-5.648.78-8.276s10.134-3.183 13.7-1.24 3.219 5.648-.78 8.276z"/><path class="st13" d="M66.805 121c-2.222 1.46-4.37 2.455-4.8 2.222s1.027-1.605 3.249-3.065c2.222-1.46 4.37-2.455 4.8-2.222s-1.027 1.607-3.249 3.065z"/><path class="st13" d="M65.163 121.151c-1.982-1.079-3.2-2.21-2.722-2.525s2.475.3 4.457 1.384 3.2 2.21 2.722 2.525-2.474-.305-4.457-1.384z"/><path class="st11" d="M105.007 208.648l.001.001.165-.095 19.426-11.178-19.594-11.403v.001l-.001-.001-19.597 11.27 19.597 11.404.003.001z"/><path class="st10" d="M93.16 224.429l11.844 6.892.001.001V208.65l-19.599-11.406h-.001v22.672l.009.005 2.561 1.491"/><path class="st9" d="M124.603 197.379l-19.431 11.174-.165.095-.003.002v22.671l.004.003h.001l19.595-11.269-.001-22.676v.001-.001z"/><path class="st11" d="M478.722 144.246h.002l.277-.159 32.643-18.783-32.925-19.161v.001l-.001-.001h-.001l-32.929 18.937 32.929 19.163.005.003z"/><path class="st10" d="M478.717 182.345l.002.001v-38.098l-32.934-19.165-.001-.001v38.097l.015.01 32.918 19.156z"/><path class="st9" d="M511.652 125.309L479 144.087l-.278.159-.004.002v38.097l.007.004h.001l32.927-18.935-.001-38.105v.002-.002z"/><path class="st11" d="M24.757 173.271l.001.001.2-.115 23.462-13.5-23.665-13.771h-.001l-23.668 13.61 23.668 13.773.003.002z"/><path class="st10" d="M24.754 200.655v-.001.001l.001-27.382-23.671-13.775h-.001v27.382l.012.006 23.659 13.769z"/><path class="st9" d="M48.425 159.661l-23.468 13.496-.2.114-.003.002v27.382l.005.003v-.001l.001.001 23.666-13.61-.001-27.387v.001-.001z"/><path class="st11" d="M24.755 142.093l.201-.114 23.462-13.5-23.665-13.772v.001l-.001-.001-23.667 13.611 23.667 13.773.003.002z"/><path class="st10" d="M24.752 169.476l.001.001v-27.382L1.082 128.32v-.001 27.382l.011.007 23.659 13.768z"/><path class="st9" d="M48.423 128.482l-23.468 13.496-.2.115-.003.002v27.381l.005.003h.001l23.666-13.609v-27.387h-.001v-.001z"/><path class="st11" d="M416.708 215.565h.001l.159-.091 18.71-10.766-18.872-10.982h-.001l-18.874 10.854 18.874 10.983.003.002z"/><path class="st10" d="M416.705 237.402h.001v-21.836l-18.876-10.985h-.001v21.836l.009.005 18.867 10.98z"/><path class="st9" d="M435.582 204.711l-18.715 10.763-.159.091-.002.001v21.836l.003.002h.001l18.873-10.853-.001-21.84v.001-.001z"/><path class="st14" d="M169.214 97.751c-.169 29.48 50.477 53.591 113.111 53.856s113.559-23.415 113.729-52.9-50.475-53.591-113.111-53.857-113.551 23.416-113.721 52.9l-.008.001z"/><path class="st15" d="M169.214 92.427c-.169 29.48 50.477 53.591 113.111 53.856s113.559-23.415 113.729-52.9S345.579 39.8 282.942 39.531s-113.551 23.416-113.721 52.9l-.007-.004z"/><path class="st16" d="M169.214 87.1c-.169 29.48 50.477 53.591 113.111 53.856s113.559-23.415 113.729-52.9-50.475-53.583-113.112-53.85-113.551 23.416-113.721 52.9l-.007-.006z"/><path class="st17" d="M169.214 81.112c-.169 29.48 50.477 53.591 113.111 53.856s113.559-23.415 113.729-52.9-50.475-53.585-113.112-53.852c-62.637-.267-113.551 23.416-113.721 52.9l-.007-.004z"/><g class="st18"><linearGradient id="SVGID_3_" gradientUnits="userSpaceOnUse" x1="-136.952" y1="445.375" x2="-136.801" y2="445.375" gradientTransform="matrix(226.1398 0 0 -105.3594 31238.51 47006.156)"><stop offset=".127" stop-color="#fff" stop-opacity="0"/><stop offset=".485" stop-color="#fff"/><stop offset=".873" stop-color="#fff" stop-opacity="0"/></linearGradient><path class="st19" d="M395.353 81.205c.168 29.093-50.321 52.888-112.762 53.15-62.441.262-113.208-23.108-113.377-52.2-.169-29.092 50.319-52.89 112.769-53.155 62.45-.265 113.2 23.109 113.37 52.2v.005z"/><linearGradient id="SVGID_4_" gradientUnits="userSpaceOnUse" x1="99.162" y1="-1213.029" x2="92.863" y2="-1168.779" gradientTransform="matrix(226.1398 0 0 -105.3594 31238.51 47006.156)"><stop offset=".127" stop-color="#fff" stop-opacity="0"/><stop offset=".485" stop-color="#fff"/><stop offset=".873" stop-color="#fff" stop-opacity="0"/></linearGradient><path class="st20" d="M395.353 81.205c.168 29.093-50.321 52.888-112.762 53.15-62.441.262-113.208-23.108-113.377-52.2-.169-29.092 50.319-52.89 112.769-53.155 62.45-.265 113.2 23.109 113.37 52.2v.005z"/><linearGradient id="SVGID_5_" gradientUnits="userSpaceOnUse" x1="103.525" y1="-1243.68" x2="97.227" y2="-1199.43" gradientTransform="matrix(226.1398 0 0 -105.3594 31238.512 47006.156)"><stop offset=".127" stop-color="#fff" stop-opacity="0"/><stop offset=".485" stop-color="#fff"/><stop offset=".873" stop-color="#fff" stop-opacity="0"/></linearGradient><path class="st21" d="M169.214 81.205c-.168 29.093 50.321 52.888 112.762 53.15 62.441.262 113.208-23.108 113.377-52.2S345.034 29.265 282.591 29c-62.443-.265-113.2 23.109-113.37 52.2l-.007.005z"/><linearGradient id="SVGID_6_" gradientUnits="userSpaceOnUse" x1="-260.04" y1="-1216.131" x2="-257.941" y2="-1187.823" gradientTransform="matrix(226.1398 0 0 -105.3594 31238.512 47006.156)"><stop offset=".127" stop-color="#fff" stop-opacity="0"/><stop offset=".485" stop-color="#fff"/><stop offset=".873" stop-color="#fff" stop-opacity="0"/></linearGradient><path class="st22" d="M169.214 81.205c-.168 29.093 50.321 52.888 112.762 53.15 62.441.262 113.208-23.108 113.377-52.2S345.034 29.265 282.591 29c-62.443-.265-113.2 23.109-113.37 52.2l-.007.005z"/><linearGradient id="SVGID_7_" gradientUnits="userSpaceOnUse" x1="-839.22" y1="-781.905" x2="-829.59" y2="-765.076" gradientTransform="matrix(226.1398 0 0 -105.3594 31238.512 47006.156)"><stop offset=".127" stop-color="#fff" stop-opacity="0"/><stop offset=".485" stop-color="#fff"/><stop offset=".873" stop-color="#fff" stop-opacity="0"/></linearGradient><path class="st23" d="M169.214 81.205c-.168 29.093 50.321 52.888 112.762 53.15 62.441.262 113.208-23.108 113.377-52.2S345.034 29.265 282.591 29c-62.443-.265-113.2 23.109-113.37 52.2l-.007.005z"/></g><path class="st24" d="M329.434 79.654c0 13.5-21.169 24.454-47.273 24.454s-47.27-10.952-47.27-24.454 21.164-24.466 47.27-24.466 47.273 10.953 47.273 24.466z"/><path class="st25" d="M322.279 79.326c.059 10.489-17.645 19.069-39.545 19.164s-39.7-8.332-39.757-18.822S260.622 60.6 282.522 60.5s39.697 8.336 39.757 18.826z"/><path class="st26" d="M322.279 76c.059 10.489-17.645 19.069-39.545 19.164s-39.7-8.332-39.757-18.822 17.645-19.069 39.545-19.164 39.697 8.33 39.757 18.822z"/><path class="st27" d="M288.269 76.479c-.007-1.465-2.537-2.643-5.652-2.63-3.115.013-5.633 1.211-5.626 2.676.007 1.466 2.537 2.643 5.652 2.631 3.115-.012 5.633-1.211 5.626-2.677"/><path class="st27" d="M317.3 76.02c.052 9.174-15.43 16.676-34.58 16.758-19.15.082-34.72-7.284-34.768-16.458s15.432-16.676 34.582-16.758c19.15-.082 34.717 7.286 34.766 16.458z"/><path class="st25" d="M298.679 76.356c-.024-4.214-7.231-7.6-16.1-7.562-8.869.038-16.034 3.484-16.01 7.7.024 4.216 7.231 7.6 16.1 7.562 8.869-.038 16.034-3.484 16.01-7.7"/><path class="st27" d="M295.777 76.207c.021 3.553-5.852 6.457-13.117 6.487s-13.17-2.823-13.19-6.376 5.852-6.456 13.117-6.487 13.171 2.823 13.19 6.376z"/><path class="st27" d="M295.777 76.207c.021 3.553-5.852 6.457-13.117 6.487s-13.17-2.823-13.19-6.376 5.852-6.456 13.117-6.487 13.171 2.823 13.19 6.376z"/><path class="st25" d="M288.545 77.139c.01 1.538-2.632 2.794-5.9 2.808s-5.92-1.22-5.929-2.757v-2h11.829v1.949z"/><path class="st27" d="M288.545 75.142c.01 1.538-2.632 2.794-5.9 2.808s-5.92-1.22-5.929-2.757c-.009-1.537 2.633-2.8 5.9-2.81 3.267-.01 5.918 1.223 5.929 2.759z"/><path class="st26" d="M288.545 75.142c.01 1.538-2.632 2.794-5.9 2.808s-5.92-1.22-5.929-2.757c-.009-1.537 2.633-2.8 5.9-2.81 3.267-.01 5.918 1.223 5.929 2.759z"/><path class="st27" d="M286.218 75.152c-.005-.932-1.616-1.68-3.6-1.672s-3.583.771-3.577 1.7c.006.929 1.616 1.68 3.6 1.672s3.583-.771 3.577-1.7"/><path class="st28" d="M256.318 185.717a5.564 5.564 0 0 0 1.619-4.745l.822-9.372-97.943-17.144-.942 10.787a6.2 6.2 0 0 0 3.126 3.929l50.79 26.756c.636.325 1.34.496 2.054.5l21.36.2a4.153 4.153 0 0 0 2-.468l15.57-9.127a15.367 15.367 0 0 0 1.544-1.316z"/><path class="st29" d="M214.225 183.53c.628.36 1.34.549 2.064.544L237.82 184a3.848 3.848 0 0 0 2.025-.566l17.7-11.132a2.731 2.731 0 0 0-.218-4.835l-25.375-14.933a4.104 4.104 0 0 0-2.44-.534l-25.207 2.323c-.606.056-27.984-10.8-28.467-10.5l-14.188 8.921c-1.859 1.611-.347 2.407 2.32 3.855 6.53 3.544 50.255 26.931 50.255 26.931z"/><path class="st30" d="M205.113 172.861l-.1-.064c-.319-.2-.246-.507.162-.687l3.025-1.333c.425-.18.906-.168 1.321.033l.1.064c.319.2.246.507-.162.687l-3.025 1.333c-.425.18-.906.168-1.321-.033zm2.776 1.722l-.1-.064c-.319-.2-.246-.507.162-.687l3.025-1.333c.425-.18.906-.168 1.321.033l.1.064c.319.2.246.507-.162.687l-3.025 1.333c-.425.18-.906.168-1.321-.033zm2.777 1.722l-.1-.064c-.319-.2-.246-.507.162-.687l3.025-1.333c.425-.18.906-.168 1.321.033l.1.064c.319.2.246.507-.162.687l-3.025 1.333c-.425.18-.906.168-1.321-.033zm20.134-14.767l-.1-.064c-.319-.2-.246-.507.162-.687l3.025-1.333c.425-.18.906-.168 1.321.033l.1.064c.319.2.246.507-.162.687l-3.025 1.333c-.425.18-.906.168-1.321-.033zm2.779 1.722l-.1-.064c-.319-.2-.246-.507.162-.687l3.025-1.333c.425-.18.906-.168 1.321.033l.1.064c.319.2.246.507-.162.687l-3.025 1.333c-.425.18-.906.168-1.321-.033zm2.777 1.722l-.1-.064c-.319-.2-.246-.507.162-.687l3.025-1.333c.425-.18.906-.168 1.321.033l.1.064c.319.2.246.507-.162.687l-3.025 1.333c-.425.18-.906.168-1.321-.033zm-21.856-6.015l.065-.029a1.655 1.655 0 0 1 1.365.034l2.362 1.464c.33.2.254.524-.167.71l-.065.029a1.655 1.655 0 0 1-1.365-.034l-2.362-1.464c-.333-.205-.258-.524.167-.71zm-3.52 1.55l.065-.029a1.655 1.655 0 0 1 1.365.034l2.362 1.464c.33.2.254.524-.167.71l-.065.029a1.655 1.655 0 0 1-1.365-.034l-2.362-1.464c-.33-.205-.254-.527.167-.71zm-3.516 1.549l.065-.029a1.655 1.655 0 0 1 1.365.034l2.362 1.464c.33.2.254.524-.167.71l-.065.029a1.655 1.655 0 0 1-1.365-.034l-2.362-1.464c-.33-.204-.255-.524.167-.71zm27.321 9.481l.065-.029a1.655 1.655 0 0 1 1.365.034l2.362 1.464c.33.2.254.524-.167.71l-.065.029a1.655 1.655 0 0 1-1.365-.034l-2.362-1.464c-.331-.205-.255-.524.167-.71zm-3.517 1.553l.065-.029a1.655 1.655 0 0 1 1.365.034l2.362 1.464c.33.2.254.524-.167.71l-.065.029a1.655 1.655 0 0 1-1.365-.034l-2.362-1.464c-.33-.21-.255-.527.167-.71zm-3.516 1.547l.065-.029a1.655 1.655 0 0 1 1.365.034l2.362 1.464c.33.2.254.524-.167.71l-.065.029a1.655 1.655 0 0 1-1.365-.034l-2.362-1.464c-.33-.205-.255-.524.167-.71z"/><path class="st31" d="M215.887 175.649l-8.755-5.429c-2.783-1.726-2.147-4.421 1.413-5.991l9.915-4.37c3.558-1.568 8.744-1.44 11.525.284l8.755 5.429c2.783 1.726 2.147 4.421-1.413 5.991l-9.915 4.37c-3.557 1.567-8.744 1.44-11.525-.284z"/><path class="st12" d="M234.622 214.277c-4.475 1.7-10.584.9-13.645-1.768s-1.915-6.213 2.56-7.909c4.475-1.696 10.584-.9 13.645 1.768s1.918 6.213-2.56 7.909z"/><path class="st13" d="M229.5 209.8c-2.486.942-4.8 1.446-5.165 1.126-.365-.32 1.351-1.343 3.837-2.286s4.8-1.446 5.165-1.126c.365.32-1.355 1.346-3.837 2.286z"/><path class="st13" d="M227.861 209.591c-1.7-1.484-2.644-2.853-2.108-3.056s2.349.835 4.05 2.32 2.644 2.853 2.108 3.056-2.349-.836-4.05-2.32z"/><path class="st12" d="M277.035 19.379c-4.276 2.149-10.434 1.992-13.754-.349s-2.546-5.982 1.73-8.131 10.434-1.992 13.754.349 2.546 5.983-1.73 8.131z"/><path class="st13" d="M271.475 15.458c-2.375 1.194-4.624 1.934-5.022 1.653s1.205-1.476 3.581-2.67 4.624-1.934 5.022-1.653-1.205 1.476-3.581 2.67z"/><path class="st13" d="M269.827 15.416c-1.845-1.3-2.925-2.564-2.412-2.822s2.423.588 4.268 1.889 2.925 2.564 2.412 2.822c-.513.258-2.423-.588-4.268-1.889z"/><path class="st12" d="M436.129 103.744c-4 2.628-10.134 3.183-13.7 1.24s-3.219-5.648.78-8.276 10.134-3.183 13.7-1.24 3.219 5.648-.78 8.276z"/><path class="st13" d="M430.153 100.49c-2.222 1.46-4.37 2.455-4.8 2.222s1.027-1.605 3.249-3.065 4.37-2.455 4.8-2.222-1.027 1.605-3.249 3.065z"/><path class="st13" d="M428.511 100.639c-1.982-1.079-3.2-2.21-2.722-2.525.478-.315 2.475.3 4.457 1.384s3.2 2.21 2.722 2.525c-.478.315-2.474-.305-4.457-1.384z"/><ellipse class="st32" cx="275.117" cy="64.244" rx="2.351" ry="1"/><ellipse class="st32" cx="288.502" cy="88.759" rx="2.351" ry="1"/><path class="st33" d="M85.007 107.356c.039 2.091.146 10.457.189 13.85a3.753 3.753 0 0 0 1.256 2.779 64.101 64.101 0 0 0 8.061 5.65c6.916 4.312 5.9-11.717 5.145-18.754a3.7 3.7 0 0 0-3.438-3.334l-10.764-.63a.428.428 0 0 0-.449.406v.033z"/><path class="st34" d="M123.124 127.078a2.29 2.29 0 0 1-2.965.257 1.736 1.736 0 0 1-.2-2.645 2.29 2.29 0 0 1 2.965-.257 1.736 1.736 0 0 1 .2 2.645z"/><path class="st35" d="M153.521 111.083l-18.072-.25-9.628-5.736a6.234 6.234 0 0 0-5.948-.268l-11.063 5.635-12.9-1.048-3.406 6.324-.479 7.6c-.245 3.762 1.216 6.688 3.557 7.985l23.393 12.97a6.182 6.182 0 0 0 6.13-.025l25.856-15.672a4.756 4.756 0 0 0 2.352-4.623h.042l.166-12.892z"/><path class="st33" d="M162.42 76.307l.626 14.512a3.2 3.2 0 0 1-1.865 3.057c-4.139 1.868-13.2 6.767-10.795 12.984 3.088 7.991-14.819-2.841-14.819-2.841l10.2-21.847 16.653-5.865z"/><path class="st36" d="M160.2 72.587l-2.238-1.041a1.276 1.276 0 0 0-1.2.058c-4.046 2.4-41.853 23.753-54.182 30.712a16.824 16.824 0 0 1-8.28.653c-2.085-.372-4.256-1.135-6.253-.42a4.699 4.699 0 0 0-2.868 3.074 4.848 4.848 0 0 0 .752 4.182 3.344 3.344 0 0 0 2.192 1.389c.959.115 1.794-.916 2.749-.771 4.605.7-1.556 5.658 4.359 9.038l22.569 11.607a6.314 6.314 0 0 0 6.053-.224l26.167-15.787c2.527-1.525 5.66-5.349 1.9-6.484 0 0-23.6-9.684 8.626-29.111a3.921 3.921 0 0 0-.346-6.875z"/><path class="st37" d="M158.577 77.576a2.29 2.29 0 0 1-2.965.257 1.736 1.736 0 0 1-.2-2.645 2.29 2.29 0 0 1 2.965-.257 1.736 1.736 0 0 1 .2 2.645zm-35.462 48.891a2.29 2.29 0 0 1-2.965.257 1.736 1.736 0 0 1-.2-2.645 2.29 2.29 0 0 1 2.965-.257 1.736 1.736 0 0 1 .2 2.645zm-31.876-18.806a2.29 2.29 0 0 1-2.965.257 1.736 1.736 0 0 1-.2-2.645 2.29 2.29 0 0 1 2.965-.257 1.736 1.736 0 0 1 .2 2.645z"/><path class="st32" d="M209.466 100.751l-96.32 1.325c-6.065.454-7.495 5.559-7.29 7.409.339 3.071 5 5.926 9.1 5.866l94.7-7.836c-.073-2.255-.137-4.51-.19-6.764zm-57.093 10.078c-2.8.039-5.089-1.647-5.118-3.766-.029-2.119 2.215-3.868 5.012-3.907s5.089 1.647 5.119 3.766c.03 2.119-2.216 3.868-5.013 3.907zM166 108.6l-.076-5.471L178 104.19l.043 3.075L166 108.6z"/><ellipse transform="rotate(-.81 114.906 108.064)" class="st38" cx="115.286" cy="108.362" rx="6.191" ry="4.533"/><ellipse transform="rotate(-.81 142.71 109.336)" class="st32" cx="143.174" cy="109.633" rx="1.747" ry="1.323"/><path class="st32" d="M209.585 101.913l4.393 1.502 9.05-.126.02 1.465-9.294.129-4.101 1.905-.068-4.875z"/><ellipse class="st9" cx="276.991" cy="164.731" rx="9.363" ry="4.921"/><path class="st9" d="M270.571 215.256l-26.389 14.673a2.157 2.157 0 0 0-1.109 1.885v5.612a2.157 2.157 0 0 0 3.2 1.885l81.841-45.506a2.157 2.157 0 0 0 1.109-1.885v-5.612a2.157 2.157 0 0 0-3.2-1.885l-48.77 27.117"/><path class="st39" d="M270.571 215.325L244.182 230a2.157 2.157 0 0 0-1.109 1.885v5.612a2.157 2.157 0 0 0 3.2 1.885l81.841-45.506a2.157 2.157 0 0 0 1.109-1.885v-5.612a2.157 2.157 0 0 0-3.2-1.885l-48.77 27.117"/><path class="st40" d="M188.343 247.078c.667-.74 1.43-1.389 2.267-1.928 2.325-1.5 5.428-2.061 7.875-.774a8.137 8.137 0 0 1 3.631 4.517 24.207 24.207 0 0 1 1.1 5.811"/><path class="st41" d="M320.9 211.492l-.548-6.9-.5.039-.5.039c.061.76-.045 1.266-.289 1.387-.5.245-1.9-.58-2.8-1.337-.012-.11-.028-.233-.047-.388l-.014-.13a4.578 4.578 0 0 0-.027-.232c-.04-.276-.093-.55-.149-.822l-.026-.138a7.973 7.973 0 0 0-.107-.431l-.061-.243c-.022-.089-.043-.178-.069-.273l-.125-.388a12.43 12.43 0 0 0-.176-.536l-.093-.232c-.087-.229-.174-.46-.309-.763a15.919 15.919 0 0 0-.393-.824 6.056 6.056 0 0 0-.144-.263l-.155-.279a11.48 11.48 0 0 0-.192-.342l-.154-.242-.425.26-53.492 22.126c-.696.387-1.39.775-2.082 1.164l-.872.488a22.214 22.214 0 0 0 9.307 10c.374.222.754.436 1.221.688.37.2.743.39 1.12.57l.133.065c.368.177.742.347 1.117.51l.169.074c.373.158.748.312 1.129.459l.1.04.174-.465-.079.5c.335.128.671.251 1.017.372l.152.052c.326.11.653.218.983.32l.148-.473-.021.514c.348.108.7.208 1.058.308l.214.057c.352.097.706.187 1.063.272l.157.037c.339.08.679.156 1.021.227l.144.031c.361.074.724.142 1.089.208l.227.039c.366.063.731.121 1.1.174l.155.022c.35.05.699.094 1.049.134l.159.02c.37.041.741.077 1.115.11l.232.019c.373.03.746.057 1.121.078l.144.007c.357.019.713.034 1.07.044l.169.006c.374.009.75.014 1.122.014h.238c.377 0 .755-.006 1.134-.017h.133c.36-.011.719-.026 1.08-.047l.176-.008c.375-.022.75-.048 1.124-.079l.233-.02c.379-.033.757-.069 1.144-.112l.11-.013c.36-.042.718-.088 1.076-.137l.185-.024c.371-.054.742-.11 1.108-.172l.232-.039c.375-.066.749-.133 1.124-.207l.1-.021c.355-.07.71-.146 1.143-.244l.105-.024c.364-.084.727-.172 1.088-.264l.221-.057c.366-.1.733-.2 1.182-.325.349-.1.7-.208 1.118-.343l.108-.034c.353-.114.702-.232 1.048-.354l.211-.075a36.887 36.887 0 0 0 2.13-.83l.183-.077c.337-.144.669-.292 1-.445l.2-.093a38.448 38.448 0 0 0 2.008-1.011l.179-.1c.316-.174.629-.351.935-.533l.185-.109c.318-.19.632-.384.968-.6.305-.2.606-.4.944-.631l.125-.087c.29-.2.577-.41.86-.622l.163-.125c.293-.221.58-.445.865-.676a28.111 28.111 0 0 0 3.556-3.438c.294-.342.575-.687.842-1.034a21.492 21.492 0 0 0 2.594-4.307 18.691 18.691 0 0 0 1.131-3.351 16.452 16.452 0 0 0 .381-5.088z"/><path class="st42" d="M313.077 191.636l-.677.424c-6.263 3.771-44.61 24.291-51.438 28.044l-.449.251-.448.251a25.54 25.54 0 0 0 5.849 4.713 39.134 39.134 0 0 0 20.007 5.016c9.453-.037 19.066-2.959 25.926-8.544 5.64-4.591 8.678-10.364 8.554-16.258-.112-5.206-2.701-10.102-7.324-13.897z"/><path class="st43" d="M306.166 195.587c-3.744 2.01-35.755 19.371-39.09 21.2a18.012 18.012 0 0 0 4.5 3.7c9.83 5.848 25.058 4.676 34.014-2.613 8.275-6.734 8.363-16.253.576-22.287z"/><path class="st44" d="M257.151 222.231l56.261-30.313s5.17 4.809 5.994 8.339c-4.606 1.568-62.255 21.974-62.255 21.974z"/><path class="st45" d="M321.363 211.49l-.548-6.9c-.385-4.848-2.933-9.383-7.274-12.947-.226.141-.451.284-.678.425-1.144.689-3.337 1.925-6.235 3.527-2.3 1.233-47.448 25.767-48.141 26.156l-.872.488a22.216 22.216 0 0 0 9.308 10c.374.222.754.436 1.221.688.369.2 2 .983 2.371 1.146l.169.074c.373.158.748.312 1.129.459l.1.04.095.035c.335.128.671.251 1.017.372l.152.052c.326.11.653.218.983.32l.127.04c.348.108.7.209 1.058.308l.214.057c.352.1 1.9.464 2.24.536l.144.03c.361.074.724.143 1.089.208l.227.039c.366.063.733.12 1.1.174l.155.022c.349.049 1.949.231 2.323.264l.232.019c.373.03.746.057 1.121.078l.144.007c.357.019 1.988.064 2.36.064h.238c.377 0 3.272-.125 3.646-.156l.233-.02c.379-.033.757-.069 1.144-.112l.11-.013c.36-.042 2-.272 2.368-.333l.232-.039c.375-.065.749-.133 1.124-.207l.1-.021c.356-.07 1.975-.439 2.336-.532l.221-.057c.366-.1.733-.2 1.182-.325.349-.1.7-.208 1.118-.343l.108-.034c.353-.114.702-.232 1.048-.354l.211-.075a36.887 36.887 0 0 0 2.13-.83l.183-.077c.337-.144.669-.292 1-.445l.2-.093a38.448 38.448 0 0 0 2.008-1.011l.179-.1c.316-.174.629-.351.935-.533l.185-.109c.318-.19.632-.384.968-.6.305-.2.606-.4.944-.631l.125-.087c.29-.2.577-.41.86-.622l.163-.125c.293-.221.58-.445.865-.676a28.111 28.111 0 0 0 3.556-3.438c.294-.342.575-.687.842-1.034 1.03-1.33 1.9-2.775 2.594-4.307.482-1.078.861-2.2 1.131-3.35a16.508 16.508 0 0 0 .382-5.092z"/><path class="st41" d="M327.241 238.208c-.28.032-.56.07-.841.118-.138.024-.276.057-.414.085-.169.034-.338.064-.507.1-.085.02-.169.047-.254.069a19.157 19.157 0 0 0-7.943 4.428c-.249.222-.492.452-.732.685l-.166.161c-.236.232-.467.469-.695.709l-.084.092c-.207.222-.411.448-.611.679l-.143.164c-.217.253-.429.509-.637.769l-.039.047c-.033.041-.064.084-.1.126-.145.185-.289.372-.43.561l-.159.214c-.168.23-.335.463-.5.7l-.035.05a25.99 25.99 0 0 0-.508.765l-.139.219c-.127.2-.251.4-.374.6l-.128.212c-.157.267-.31.533-.461.8l-.065.12c-.129.234-.255.47-.379.708l-.127.246c-.113.221-.223.444-.332.669-.03.062-.061.123-.09.185a34.21 34.21 0 0 0-.39.85l-.088.2a40.592 40.592 0 0 0-.704 1.73l-.037.1c-.11.295-.216.593-.319.892l-.084.248c-.077.23-.153.461-.226.694l-.079.25c-.093.3-.184.606-.269.911-.01.034-.018.068-.028.1-.076.274-.149.549-.219.824l-.068.272c-.06.243-.118.487-.173.732l-.049.217c-.067.31-.13.62-.192.93l-.038.206c-.047.25-.091.5-.133.75l-.046.278a38.61 38.61 0 0 0-.241 1.757c0 .038-.007.077-.011.115-.017.152-.03.3-.045.456-.019.192-.037.384-.053.576-.013.155-.022.31-.033.465-.013.189-.026.378-.036.568l-.021.47c-.007.187-.014.375-.019.562 0 .157-.006.314-.007.472v.558c.003.499.016.998.039 1.497a31.716 31.716 0 0 0 .112 1.567c.015.155.03.311.047.465.057.517.126 1.033.208 1.547.024.151.047.3.074.452.032.182.066.362.1.543.028.147.056.295.086.442.038.183.08.364.121.545.032.143.064.286.1.427.045.185.094.368.143.552.036.136.07.273.108.408.054.192.112.381.17.571.033.11.064.221.1.331l.015.044c.066.208.138.413.209.618.036.1.069.208.106.311.194.538.406 1.069.635 1.593l.086.191c.076.17.154.337.233.5l.082.172c.104.213.21.424.318.631l.052.1c.093.176.188.349.285.519l.1.178c.091.157.184.312.278.465l.079.13c.119.19.24.377.362.56l.087.127c.098.144.198.286.3.425l.114.157c.112.152.225.301.34.448l.055.071c.133.167.267.331.4.491l.112.13c.105.121.212.24.319.357l.121.132c.142.151.285.3.43.444l.016.015c.14.139.283.274.427.406l.131.119c.115.103.23.203.348.3l.119.1c.153.127.307.25.462.37l.083.062c.133.1.267.196.4.29l.143.1c.128.089.257.175.388.259l.078.052.028.017c.153.097.308.191.464.282l.1.058c.124.07.248.14.373.206l.159.083c.111.057.223.113.335.167l.159.076c.133.062.267.122.4.18l.086.037c.164.067.329.132.494.195l.135.048c.123.045.247.087.37.128l.17.054c.12.037.24.073.36.107l.155.044c.17.046.34.089.512.128l3.555.809 2.922.665c1.67.374 3.395.43 5.085.167a17.124 17.124 0 0 1-12.405 2.161l6.478 1.473c5.313 1.208 11.264-.436 16.627-5.229.305-.272.605-.551.9-.838l.064-.061c.28-.275.556-.556.826-.844l.1-.1c.263-.28.52-.567.773-.859l.112-.129c.248-.289.491-.583.73-.882l.061-.074.061-.08c.209-.267.414-.533.616-.8l.092-.126c.191-.26.38-.524.565-.791l.073-.1c.194-.283.384-.569.57-.859l.115-.18c.184-.29.365-.582.542-.877l.077-.131c.167-.282.331-.567.491-.854l.068-.121c.168-.304.332-.611.493-.921l.1-.192c.159-.31.314-.623.466-.938l.062-.131c.142-.3.28-.601.416-.906l.062-.137c.141-.321.279-.645.412-.971l.083-.2c.133-.327.262-.657.386-.988l.047-.128c.117-.315.23-.631.34-.949l.052-.15c.114-.333.224-.67.329-1.008l.065-.211c.105-.34.205-.683.3-1.026l.033-.12c.09-.327.178-.655.261-.984l.041-.162a46.33 46.33 0 0 0 .508-2.303l.02-.11c.067-.333.126-.669.179-1.007l.029-.173c.057-.35.109-.7.156-1.05l.029-.215c.047-.356.091-.712.129-1.068 0-.033.006-.066.01-.1.035-.34.066-.68.093-1.021 0-.06.01-.119.015-.178.027-.351.049-.702.066-1.053 0-.072.007-.143.01-.215.016-.357.029-.714.036-1.071v-.083c.006-.342.006-.684 0-1.025v-.183a36.37 36.37 0 0 0-.027-1.044c0-.07-.006-.141-.009-.211a41.788 41.788 0 0 0-.059-1.063l-.005-.065a38.799 38.799 0 0 0-.229-2.23l-.028-.2c-.048-.349-.1-.7-.159-1.042l-.008-.047a32.087 32.087 0 0 0-.224-1.185c-.067-.333-.14-.664-.22-.991l-.047-.194a31.834 31.834 0 0 0-.262-1.01l-.008-.027a28.035 28.035 0 0 0-.291-.977c-.012-.037-.022-.075-.033-.112s-.016-.046-.023-.07a30.855 30.855 0 0 0-.32-.945l-.067-.183a30.252 30.252 0 0 0-.367-.963 26.221 26.221 0 0 0-2.1-4.141c-.222-.353-.453-.7-.693-1.04a20.066 20.066 0 0 0-3.131-3.506 17.418 17.418 0 0 0-2.671-1.932 15.943 15.943 0 0 0-2.396-1.143 15.214 15.214 0 0 0-2.006-.6l-6.478-1.473a17.291 17.291 0 0 1 10.291 7.312l-.017-.012a14.133 14.133 0 0 0-2.893-1.501 13.356 13.356 0 0 0-1.751-.526l-2.893-.658-3.585-.815a8.416 8.416 0 0 0-.545-.1c-.11-.02-.22-.046-.331-.064-.254-.04-.51-.07-.767-.1-.04 0-.08-.011-.12-.015-.171-.015-.344-.02-.516-.029-.127-.007-.254-.019-.382-.021h-.3c-.2 0-.4 0-.6.006-.076 0-.153.013-.23.017-.227.013-.454.027-.683.051l-.063-.002z"/><path class="st42" d="M306.339 282.139c-5.508-13.641-1.175-32.56 9.678-42.259s24.115-6.5 29.623 7.136 1.175 32.56-9.678 42.259c-10.853 9.699-24.115 6.505-29.623-7.136z"/><path class="st43" d="M340.725 251.408c-4.131-10.23-14.075-12.628-22.215-5.354s-11.39 21.465-7.259 31.695 14.077 12.623 22.216 5.349 11.387-21.462 7.257-31.689"/><path class="st45" d="M354.5 261.316a36.37 36.37 0 0 0-.027-1.044c0-.07-.006-.141-.009-.211a37.635 37.635 0 0 0-.06-1.063l-.005-.065a34.878 34.878 0 0 0-.229-2.23l-.028-.2c-.048-.349-.1-.7-.159-1.042l-.008-.047a32.087 32.087 0 0 0-.224-1.185c-.067-.333-.14-.664-.22-.991l-.047-.193a31.834 31.834 0 0 0-.262-1.01l-.002-.035a28.035 28.035 0 0 0-.291-.977c-.012-.037-.022-.075-.033-.112s-.016-.046-.023-.07a30.855 30.855 0 0 0-.32-.945l-.067-.183a30.252 30.252 0 0 0-.367-.963 26.221 26.221 0 0 0-2.1-4.141c-.222-.353-.453-.7-.693-1.04a20.066 20.066 0 0 0-3.131-3.506 17.467 17.467 0 0 0-2.671-1.932 15.943 15.943 0 0 0-2.396-1.143 15.214 15.214 0 0 0-2.006-.6l-6.478-1.473c.024.005.047.014.071.02-5.331-1.24-11.311.394-16.7 5.209-10.853 9.7-15.186 28.619-9.678 42.259 2.817 6.977 7.665 11.213 13.18 12.4-.061-.013-.123-.018-.184-.032l6.478 1.473c5.313 1.208 11.264-.436 16.627-5.229.305-.272.605-.551.9-.838l.064-.061c.28-.275.556-.556.826-.844l.1-.1c.263-.28.52-.567.773-.859l.112-.129c.248-.289.491-.583.73-.882l.061-.074.061-.08c.209-.267.414-.533.616-.8l.092-.126c.191-.26.38-.524.565-.791l.073-.1c.194-.283.384-.569.57-.859l.115-.18c.184-.29.365-.582.542-.877l.077-.131c.167-.282.331-.567.491-.854l.068-.121c.168-.304.332-.611.492-.921l.1-.192c.159-.31.314-.623.466-.938l.062-.131c.142-.3.28-.601.416-.906l.062-.137c.141-.321.279-.645.412-.971l.083-.2c.133-.327.262-.657.386-.988l.047-.128c.117-.315.23-.631.34-.949l.052-.15c.114-.333.224-.67.329-1.008l.065-.211c.105-.34.205-.683.3-1.026l.033-.12c.316-1.138.586-2.289.81-3.449l.02-.11c.067-.333.126-.669.179-1.007l.029-.173c.057-.35.109-.7.156-1.05l.029-.215c.047-.356.091-.712.129-1.068 0-.033.006-.066.01-.1.035-.34.067-.68.094-1.021 0-.06.01-.119.015-.178.027-.351.049-.702.066-1.053 0-.072.007-.143.01-.215.016-.357.029-.714.036-1.071v-.083c.006-.342.006-.684 0-1.025a1.469 1.469 0 0 0-.002-.199z"/><path class="st46" d="M327.158 261.615l-.463 3.01 4.877.654-.335 1.466-4.761-.628c-.265 1.278-.471 2.53-.792 3.744a31.999 31.999 0 0 1-1.253 3.953 4.963 4.963 0 0 1-3.379 3.17 3 3 0 0 1-2.748-.5 1.2 1.2 0 0 1-.192-1.879c.153-.146.634-.054.854.116.29.288.536.617.731.976a1.113 1.113 0 0 0 1.875.2A5.554 5.554 0 0 0 322.95 273c.468-2.251.844-4.527 1.253-6.793a2.358 2.358 0 0 0-.009-.394l-4.521-.635.129-1.457 4.663.587.545-2.978-4.881-.691.13-1.474 4.995.656c.119-.552.22-1.062.34-1.566.303-1.738.88-3.416 1.711-4.972a4.43 4.43 0 0 1 3.884-2.5 2.633 2.633 0 0 1 2.085.906c.116.137.283.313.279.465-.008.38.013.885-.187 1.105-.3.336-.769.186-1.091-.141a6.95 6.95 0 0 1-.667-.878 1.094 1.094 0 0 0-1.864-.16 5.075 5.075 0 0 0-1.009 1.814c-.527 2.012-.935 4.063-1.413 6.209l4.7.634-.321 1.456-4.543-.578zm-33.767-52.502c-.238-.46-.495-.912-.765-1.408l4.211-2.765-.864-1.2-4.147 2.666c-.368-.627-.643-1.088-.993-1.684-.626.347-1.281.688-1.948 1.064l1.131 1.809-3.816 2.525.708 1.312 3.971-2.588c1.039 1.938 2.07 3.758 2.986 5.625.28.641.423 1.334.421 2.033.027.882-.66 1.31-1.516 1.1a6.846 6.846 0 0 0-1.078-.229c-.457-.037-.907.153-.918.606-.007.3.339.666.581.959.1.118.338.141.516.17a2.635 2.635 0 0 0 2.17-.676 4.428 4.428 0 0 0 1.3-4.433 16.642 16.642 0 0 0-1.95-4.886z"/><path class="st47" d="M407.025 59.242l-5.185 5.375m-.868-8.482l-5.009 5.193m-.766-8.587l-5.124 5.312m-.925-8.6l-5.049 5.234m-1.127-8.583l-5.008 5.192m-.803-8.423l-5.009 5.193m-.955-8.555l-5.033 5.218m-1.02-8.325l-4.866 5.045m-.319-8.266l-5.011 5.195m-15.136-15.917l-4.816 4.757m-.737-7.867l-4.928 4.866m-.889-7.878l-4.855 4.795"/><linearGradient id="SVGID_8_" gradientUnits="userSpaceOnUse" x1="436.975" y1="57.612" x2="429.719" y2="70.18" gradientTransform="matrix(1 0 0 -1 0 300.56)"><stop offset="0" stop-color="#fff"/><stop offset="1" stop-color="#e4e6f3"/></linearGradient><path class="st48" d="M435.926 226.845l13.868 8.701-18.257 10.39-14.637-8.155z"/><linearGradient id="SVGID_9_" gradientUnits="userSpaceOnUse" x1="126.424" y1="63.241" x2="118.682" y2="76.651" gradientTransform="matrix(1 0 0 -1 0 300.56)"><stop offset="0" stop-color="#fff"/><stop offset="1" stop-color="#e4e6f3"/></linearGradient><path class="st49" d="M125.305 220.137l14.798 9.285-19.481 11.086-15.619-8.701z"/><linearGradient id="SVGID_10_" gradientUnits="userSpaceOnUse" x1="50.133" y1="92.794" x2="40.961" y2="108.682" gradientTransform="matrix(1 0 0 -1 0 300.56)"><stop offset="0" stop-color="#fff"/><stop offset="1" stop-color="#e4e6f3"/></linearGradient><path class="st50" d="M48.808 187.409l17.532 11-23.081 13.135-18.505-10.309z"/></g></svg>